<svg viewBox="0 0 900 400" xmlns="http://www.w3.org/2000/svg" role="img" aria-labelledby="title-IJIP desc-IJIP">
  <title id="title-IJIP">International Journal of Innovative Publications</title>
  <desc id="desc-IJIP">Title-oriented website image for International Journal of Innovative Publications, styled as a modern peer-reviewed open-access journal hero banner.</desc>
  <defs>
    <linearGradient id="bg12" x1="0%" y1="0%" x2="100%" y2="100%"><stop offset="0%" stop-color="#4d22b2"/><stop offset="48%" stop-color="#2f2a88"/><stop offset="100%" stop-color="#0a315f"/></linearGradient>
    <radialGradient id="glow12" cx="12%" cy="10%" r="60%"><stop offset="0%" stop-color="#8d63ff" stop-opacity="0.55"/><stop offset="100%" stop-color="#000000" stop-opacity="0"/></radialGradient>
    <linearGradient id="gold12" x1="0%" y1="0%" x2="100%" y2="100%"><stop offset="0%" stop-color="#ffe76a"/><stop offset="100%" stop-color="#ffc928"/></linearGradient>
    <linearGradient id="cyan12" x1="0%" y1="0%" x2="100%" y2="100%"><stop offset="0%" stop-color="#17d1d3"/><stop offset="100%" stop-color="#0ba5bd"/></linearGradient>
    <pattern id="grid12" width="24" height="24" patternUnits="userSpaceOnUse"><path d="M24 0H0V24" fill="none" stroke="#ffffff" stroke-opacity="0.035" stroke-width="1"/></pattern>
    <style>.pill{font-family:'Outfit','Segoe UI',Arial,sans-serif;font-weight:900;font-size:15px;letter-spacing:.2px}.title{font-family:'Outfit','Segoe UI',Arial,sans-serif;font-weight:900;font-size:28px;fill:#fff;letter-spacing:0}.tagline{font-family:'Outfit','Segoe UI',Arial,sans-serif;font-style:italic;font-weight:800;font-size:17px;fill:rgba(255,255,255,.82)}.editor{font-family:'Outfit','Segoe UI',Arial,sans-serif;font-weight:900;font-size:17px;fill:#ffd140}.chip{font-family:'Outfit','Segoe UI',Arial,sans-serif;font-size:13px;font-weight:800;fill:rgba(255,255,255,.92)}.small{font-family:'Poppins','Segoe UI',Arial,sans-serif;font-size:10px;font-weight:800;fill:rgba(255,255,255,.58)}</style>
  </defs>
  <rect width="900" height="400" rx="30" fill="url(#bg12)"/><rect width="900" height="400" rx="30" fill="url(#glow12)"/><rect width="900" height="400" rx="30" fill="url(#grid12)"/>
  <circle cx="32" cy="34" r="5" fill="#fff" opacity=".7"/>
  <g opacity=".16" transform="translate(675 64)"><circle cx="100" cy="108" r="90" fill="none" stroke="#fff" stroke-width="1.5" stroke-dasharray="8 9"/><ellipse cx="100" cy="108" rx="90" ry="31" fill="none" stroke="#fff" stroke-width="1.5" stroke-dasharray="8 9"/><ellipse cx="100" cy="108" rx="32" ry="90" fill="none" stroke="#fff" stroke-width="1.5" stroke-dasharray="8 9"/><path d="M10 108h180M100 18v180" stroke="#fff" stroke-width="1.5" stroke-dasharray="8 9"/><circle cx="100" cy="18" r="5" fill="#fff"/><circle cx="100" cy="198" r="5" fill="#fff"/><circle cx="10" cy="108" r="5" fill="#fff"/><circle cx="190" cy="108" r="5" fill="#fff"/></g>
  <g transform="translate(54 92)"><rect x="0" y="0" width="250" height="216" rx="24" fill="rgba(0,0,0,.22)" stroke="rgba(255,255,255,.22)" stroke-width="3"/><rect x="11" y="11" width="228" height="194" rx="18" fill="rgba(4,15,38,.64)"/><g transform="translate(6 6)"><circle cx="122" cy="98" r="82" fill="#000" opacity=".7"/><circle cx="122" cy="98" r="74" fill="none" stroke="#ffd23f" stroke-opacity=".16"/><path d="M122 32c-35 0-63 28-63 61 0 23 12 40 28 52 8 6 10 13 10 23h50c0-10 3-17 11-23 16-12 28-29 28-52 0-33-29-61-64-61zM96 187h52M102 168h40" fill="none" stroke="#ffd23f" stroke-linecap="round" stroke-linejoin="round" stroke-width="7" opacity="0.66"/><path d="M102 94l16 16 32-45" fill="none" stroke="#ffd23f" stroke-linecap="round" stroke-linejoin="round" stroke-width="5" opacity="0.5"/></g></g>
  <g transform="translate(330 52)"><rect x="0" y="0" width="190" height="36" rx="18" fill="url(#gold12)"/><text x="95" y="24" text-anchor="middle" class="pill" fill="#1d2440">PEER REVIEWED JOURNAL</text><rect x="204" y="0" width="126" height="36" rx="18" fill="url(#cyan12)"/><text x="267" y="24" text-anchor="middle" class="pill" fill="#fff">OPEN ACCESS</text></g>
  <text x="330" y="106" class="title">International Journal of</text>
  <text x="330" y="138" class="title">Innovative Publications</text>
  <text x="330" y="174" class="tagline">Fostering Creative Multidisciplinary Ideas</text><text x="330" y="211" class="editor">Editor-in-Chief: Dr.P.Sivakumar</text>
  <g transform="translate(330 244)"><rect x="0" y="0" width="155" height="48" rx="15" fill="rgba(255,255,255,.08)" stroke="rgba(255,255,255,.20)"/><text x="18" y="30" class="chip">Online ISSN: Pending</text><rect x="170" y="0" width="185" height="48" rx="15" fill="rgba(255,255,255,.08)" stroke="rgba(255,255,255,.20)"/><text x="188" y="30" class="chip">Frequency: 12 Issue per Year</text><rect x="370" y="0" width="132" height="48" rx="15" fill="rgba(255,255,255,.08)" stroke="rgba(255,255,255,.20)"/><text x="394" y="30" class="chip">Peer Reviewed</text></g>
  <g transform="translate(330 322)"><rect x="0" y="0" width="238" height="48" rx="24" fill="url(#gold12)"/><text x="119" y="31" text-anchor="middle" font-family="Outfit,Arial" font-size="16" font-weight="900" fill="#20263f">Submit your manuscripts</text></g>
  <text x="58" y="334" class="small">Innovation | Publishing | Research</text>
  
</svg>
