<svg viewBox="0 0 400 170" xmlns="http://www.w3.org/2000/svg" role="img" aria-labelledby="title-JIML-IEA desc-JIML-IEA">
  <title id="title-JIML-IEA">SSSL Journal of Intelligent Machine Learning and IoT Enabled Applications</title>
  <desc id="desc-JIML-IEA">Dark title-oriented journal banner for SSSL Journal of Intelligent Machine Learning and IoT Enabled Applications.</desc>
  <defs>
    <linearGradient id="journalBanner13" x1="0%" y1="0%" x2="100%" y2="100%">
      <stop offset="0%" stop-color="#20419f"/>
      <stop offset="100%" stop-color="#0f4664"/>
    </linearGradient>
    <pattern id="grid13" width="22" height="22" patternUnits="userSpaceOnUse">
      <path d="M22 0H0V22" fill="none" stroke="#ffffff" stroke-opacity="0.045" stroke-width="1"/>
    </pattern>
    <style>
      .code { font-family: Georgia, 'Times New Roman', serif; font-size: 31px; font-weight: 800; letter-spacing: 0.7px; fill: rgba(255,255,255,0.62); }
      .title { font-family: 'Outfit', 'Segoe UI', Arial, sans-serif; font-size: 15px; font-weight: 800; fill: rgba(255,255,255,0.62); }
      .subject { font-family: 'Poppins', 'Segoe UI', Arial, sans-serif; font-size: 10px; font-weight: 700; fill: rgba(255,255,255,0.42); }
      .meta { font-family: 'Poppins', 'Segoe UI', Arial, sans-serif; font-size: 8px; font-weight: 800; fill: rgba(255,255,255,0.28); letter-spacing: 0.4px; }
    </style>
  </defs>
  <rect width="400" height="170" fill="url(#journalBanner13)"/>
  <rect width="400" height="170" fill="url(#grid13)"/>
  <circle cx="355" cy="30" r="73" fill="#ffffff" opacity="0.055"/>
  <circle cx="52" cy="156" r="82" fill="#000000" opacity="0.11"/>
  <rect x="14" y="10" width="372" height="145" rx="19" fill="#ffffff" opacity="0.045"/>
  <text x="24" y="45" class="code">JIML-IEA</text>
  <text x="24" y="75" class="title">SSSL Journal of Intelligent Machine Learning</text>
  <text x="24" y="96" class="title">and IoT Enabled Applications</text>
  <text x="24" y="123" class="subject">Machine Learning | IoT | Artificial Intelligence</text>
  <text x="24" y="145" class="meta">OPEN ACCESS JOURNAL</text>
  <text x="24" y="158" class="meta">VOLUME 1 | ISSUE 1</text>
  <rect x="270" y="78" width="76" height="50" rx="10" fill="none" stroke="#0b6a8d" stroke-width="5" stroke-linecap="round" stroke-linejoin="round" opacity="0.56"/><path d="M256 143h104M294 128v15M322 128v15M284 96h8M306 96h8M328 96h8M284 112h8M306 112h8M328 112h8" fill="none" stroke="#0b6a8d" stroke-width="5" stroke-linecap="round" stroke-linejoin="round" opacity="0.56"/>
  
</svg>
